<?xml version="1.0" encoding="UTF-8"?>
<svg version="1.1" xmlns="http://www.w3.org/2000/svg" width="16" height="16">
  <path d="M0 0 C5.28 0 10.56 0 16 0 C16 5.28 16 10.56 16 16 C10.72 16 5.44 16 0 16 C0 10.72 0 5.44 0 0 Z "
        fill="#2AA0EE" transform="translate(0,0)" />
  <path
    d="M0 0 C5.28 0 10.56 0 16 0 C16 3.63 16 7.26 16 11 C15.01 11 14.02 11 13 11 C13 8.69 13 6.38 13 4 C9.04 3.67 5.08 3.34 1 3 C0.67 3.99 0.34 4.98 0 6 C0 4.02 0 2.04 0 0 Z "
    fill="#249DEE" transform="translate(0,0)" />
  <path
    d="M0 0 C8.57142857 -0.14285714 8.57142857 -0.14285714 12 1 C12.54372951 4.05847848 13 6.88772805 13 10 C12.01 10 11.02 10 10 10 C9.67 8.35 9.34 6.7 9 5 C8.34 6.65 7.68 8.3 7 10 C6.67 10 6.34 10 6 10 C6.33 7.36 6.66 4.72 7 2 C4.10067643 4.39509338 3.49831724 6.31245243 3 10 C2.34 10 1.68 10 1 10 C1.03255208 7.98177083 1.06510417 5.96354167 1.09765625 3.9453125 C1.12649242 1.91814596 1.12649242 1.91814596 0 0 Z "
    fill="#E6F3FD" transform="translate(1,3)" />
  <path
    d="M0 0 C1.32 0 2.64 0 4 0 C4.54372951 3.05847848 5 5.88772805 5 9 C4.01 9 3.02 9 2 9 C1.855625 7.88625 1.71125 6.7725 1.5625 5.625 C1.21627965 2.17857953 1.21627965 2.17857953 0 0 Z "
    fill="#C8E6FA" transform="translate(9,4)" />
  <path d="M0 0 C0.66 0 1.32 0 2 0 C1.67 2.64 1.34 5.28 1 8 C0.01 8 -0.98 8 -2 8 C-1.125 1.125 -1.125 1.125 0 0 Z "
        fill="#44ACF0" transform="translate(6,5)" />
</svg>
